<?xml version="1.0" standalone="no"?>
<!DOCTYPE svg PUBLIC "-//W3C//DTD SVG 20010904//EN"
 "http://www.w3.org/TR/2001/REC-SVG-20010904/DTD/svg10.dtd">
<svg version="1.0" xmlns="http://www.w3.org/2000/svg"
 width="664.000000pt" height="664.000000pt" viewBox="0 0 664.000000 664.000000"
 preserveAspectRatio="xMidYMid meet">
<metadata>
Created by potrace 1.11, written by Peter Selinger 2001-2013
</metadata>
<g transform="translate(0.000000,664.000000) scale(0.100000,-0.100000)"
fill="#000000" stroke="none">
<path d="M3260 6631 c-218 -71 -283 -315 -124 -467 129 -125 338 -96 429 60
101 173 -15 395 -215 410 -36 3 -76 2 -90 -3z"/>
<path d="M1952 6299 c-34 -13 -72 -39 -103 -71 -210 -213 41 -561 315 -435
138 64 199 223 138 361 -23 52 -105 136 -132 136 -9 0 -21 5 -27 11 -21 21
-134 20 -191 -2z"/>
<path d="M2606 5985 c-75 -31 -123 -69 -161 -130 -27 -43 -30 -57 -30 -129 0
-85 19 -137 70 -191 73 -77 192 -109 289 -75 43 15 126 72 126 88 0 6 4 12 9
12 16 0 54 105 56 155 2 77 -34 158 -98 217 -42 38 -88 58 -143 60 -27 2 -51
6 -54 10 -3 4 -32 -4 -64 -17z"/>
<path d="M1689 5206 c-3 -3 -34 -7 -70 -9 -35 -3 -83 -10 -107 -16 -92 -25
-198 -101 -256 -181 -37 -51 -84 -161 -90 -212 -3 -18 -5 -33 -6 -33 -4 0 -11
-101 -13 -187 -5 -177 35 -311 123 -411 35 -40 176 -147 195 -148 5 0 98 -40
103 -44 8 -7 16 -153 15 -265 -1 -134 -5 -179 -22 -222 -6 -16 -9 -28 -7 -28
8 0 -111 -268 -124 -280 -5 -5 -54 -98 -127 -240 -15 -30 -31 -57 -34 -60 -4
-3 -25 -41 -47 -85 -23 -44 -56 -107 -75 -140 -18 -33 -60 -109 -92 -170 -32
-60 -80 -149 -107 -198 -26 -48 -48 -89 -48 -92 0 -2 -13 -26 -28 -52 -16 -26
-55 -97 -87 -158 -32 -60 -88 -166 -125 -235 -37 -69 -93 -174 -125 -235 -32
-60 -87 -164 -123 -230 -156 -288 -240 -463 -262 -545 -95 -349 56 -609 410
-702 l85 -23 2035 0 c1119 0 2051 3 2070 6 85 16 163 41 240 77 47 22 53 27
132 104 80 79 118 152 135 263 11 72 -1 229 -19 252 -5 6 -8 17 -6 25 1 7 -3
29 -11 48 -15 39 -117 246 -160 325 -15 28 -60 113 -101 190 -41 77 -89 167
-107 200 -18 33 -49 92 -69 130 -19 39 -49 95 -65 125 -17 30 -48 89 -70 130
-101 190 -119 223 -156 292 -23 40 -55 100 -73 133 -75 140 -112 210 -151 283
-23 42 -52 95 -64 117 -12 22 -42 76 -65 120 -52 97 -96 180 -140 260 -98 179
-170 343 -185 421 -19 103 -23 222 -12 344 3 30 6 70 6 88 1 18 6 32 14 32 21
1 158 73 185 98 7 6 16 12 20 12 16 1 99 86 129 133 57 89 77 173 78 332 1
145 -12 256 -42 334 -53 140 -173 254 -317 301 -55 18 -226 28 -248 14 -4 -3
-8 -2 -8 3 0 8 -115 7 -137 -1 -7 -3 -14 -2 -17 2 -5 8 -1728 7 -1750 -1 -8
-3 -16 -1 -18 4 -2 6 -6 8 -9 5z m2116 -293 c79 -27 137 -106 151 -206 10 -73
11 -178 2 -205 -4 -13 -10 -37 -13 -54 -15 -86 -96 -187 -184 -230 -25 -12
-48 -23 -51 -24 -3 0 -18 -6 -33 -12 -16 -7 -32 -12 -36 -12 -21 0 -64 -47
-86 -93 -29 -62 -39 -135 -38 -277 1 -160 14 -290 40 -380 8 -30 16 -59 18
-65 1 -5 7 -23 13 -38 7 -16 12 -30 12 -32 0 -5 39 -91 74 -165 11 -25 27 -53
35 -62 8 -10 11 -18 6 -18 -4 0 -3 -6 3 -12 5 -7 27 -44 47 -83 21 -38 50 -92
65 -120 15 -27 48 -88 73 -135 25 -47 67 -123 92 -170 25 -47 55 -103 66 -125
11 -22 30 -58 42 -80 13 -22 46 -83 74 -135 28 -52 59 -111 70 -130 11 -19 46
-84 78 -145 32 -60 61 -114 65 -120 4 -5 40 -73 80 -150 40 -77 80 -153 90
-170 10 -16 46 -84 80 -150 74 -141 130 -247 175 -330 125 -229 161 -316 171
-407 13 -116 -30 -198 -129 -252 -26 -14 -48 -25 -50 -24 -1 1 -27 -5 -57 -13
-46 -11 -375 -14 -2035 -14 -1089 0 -2005 3 -2036 7 -101 13 -199 59 -239 112
-49 65 -58 166 -24 273 17 53 69 161 156 323 19 36 62 117 96 180 33 63 81
153 107 200 25 47 55 103 65 125 11 22 24 47 30 55 5 8 61 112 123 230 97 182
277 519 440 820 22 41 56 104 75 140 19 36 49 90 66 120 132 237 230 453 257
566 6 27 13 58 15 69 18 77 26 426 12 496 -12 61 -44 124 -76 151 -17 14 -60
36 -96 48 -185 66 -272 214 -262 445 6 161 60 252 165 280 35 9 309 12 1110
12 899 1 1070 -1 1106 -14z"/>
<path d="M1954 2912 c-5 -4 -22 -32 -38 -62 -16 -30 -38 -68 -48 -85 -10 -16
-26 -47 -35 -67 -10 -21 -21 -38 -25 -38 -5 0 -8 -9 -8 -20 0 -11 -4 -20 -8
-20 -5 0 -14 -16 -22 -35 -8 -19 -18 -35 -22 -35 -5 0 -7 -4 -3 -9 3 -5 1 -12
-4 -16 -5 -3 -16 -18 -24 -33 -27 -54 -110 -207 -118 -217 -4 -5 -28 -50 -54
-100 -26 -49 -54 -97 -61 -106 -8 -8 -14 -19 -14 -24 0 -4 -38 -76 -84 -159
-46 -83 -98 -177 -115 -208 -17 -32 -44 -82 -60 -110 -117 -214 -229 -418
-241 -443 -8 -16 -18 -32 -21 -35 -3 -3 -32 -54 -64 -115 -32 -60 -67 -122
-77 -138 -11 -15 -16 -27 -11 -27 4 0 3 -4 -2 -8 -9 -6 -85 -144 -85 -153 0
-2 890 -4 1979 -4 1754 0 1978 2 1973 15 -3 8 -19 37 -35 65 -16 27 -33 59
-38 70 -5 11 -13 27 -19 35 -9 13 -146 262 -243 440 -16 30 -42 78 -57 105
-15 28 -42 77 -60 110 -18 33 -44 80 -58 105 -13 25 -38 70 -54 100 -17 30
-44 80 -60 110 -17 30 -40 73 -52 95 -11 22 -24 42 -27 45 -3 3 -16 28 -30 55
-13 28 -30 56 -36 63 -7 7 -13 17 -13 21 0 8 -178 339 -200 371 -5 8 -16 29
-25 45 -8 17 -35 66 -59 110 -25 44 -58 104 -73 134 -15 29 -33 56 -40 58 -13
5 -152 -36 -210 -63 -17 -8 -35 -14 -40 -14 -11 0 -162 -57 -246 -94 -21 -9
-42 -16 -48 -16 -6 0 -25 -6 -42 -14 -39 -18 -167 -63 -205 -73 -15 -3 -59 -8
-98 -9 -64 -2 -79 1 -140 32 -38 19 -92 56 -120 82 -214 199 -353 303 -380
284z m2483 -2158 c-3 -3 -12 -4 -19 -1 -8 3 -5 6 6 6 11 1 17 -2 13 -5z"/>
<path d="M5328 3762 c-10 -2 -18 -8 -18 -13 0 -5 -6 -9 -14 -9 -13 0 -66 -92
-66 -115 0 -20 -85 -93 -140 -120 -30 -15 -63 -31 -73 -36 -9 -5 -43 -12 -75
-15 -47 -5 -66 -2 -105 16 -26 12 -47 25 -47 29 0 9 -52 31 -81 33 -32 3 -103
-39 -153 -90 -50 -52 -58 -106 -26 -176 37 -81 41 -121 22 -186 -7 -25 -14
-49 -16 -55 -6 -25 -40 -80 -73 -116 -25 -28 -33 -43 -25 -52 5 -6 33 -57 62
-112 30 -55 70 -130 91 -167 20 -37 40 -76 44 -87 3 -12 10 -21 15 -21 5 0 10
-8 12 -17 2 -10 40 -89 86 -175 46 -87 83 -160 82 -164 -1 -4 2 -10 7 -13 5
-3 35 -58 67 -121 83 -164 127 -245 136 -248 15 -6 67 -58 86 -87 11 -16 26
-49 32 -72 16 -55 55 -100 95 -109 84 -19 160 -6 194 35 13 14 23 30 23 34 0
21 41 95 67 119 41 38 124 85 184 102 86 26 125 21 199 -24 85 -52 121 -53
187 -3 59 45 92 79 103 108 10 27 2 98 -14 107 -6 4 -8 8 -3 8 4 0 0 11 -9 25
-39 60 -20 195 41 291 43 66 89 101 167 125 102 31 118 53 125 170 6 99 -11
139 -72 168 -23 11 -54 23 -67 26 -32 8 -92 66 -123 118 -34 59 -58 158 -50
213 3 25 19 71 35 102 58 110 42 156 -88 264 -36 30 -84 28 -148 -5 -33 -16
-74 -32 -93 -34 -39 -6 -111 12 -161 40 -109 60 -159 113 -181 188 -16 57 -45
98 -78 111 -26 11 -131 17 -163 10z m162 -564 c8 -3 29 -8 45 -13 17 -4 66
-26 110 -49 232 -119 364 -399 307 -651 -16 -71 -61 -175 -75 -175 -6 0 -7 -3
-4 -6 8 -8 -43 -75 -93 -123 -64 -61 -176 -128 -247 -146 -15 -4 -39 -10 -53
-13 -57 -15 -234 -5 -298 16 -134 45 -250 135 -325 251 -23 36 -42 67 -42 70
-1 3 -9 21 -18 39 -10 17 -15 32 -13 32 3 0 0 15 -5 33 -48 159 -12 350 92
493 74 100 225 210 319 230 14 3 36 7 50 10 13 3 26 7 29 9 5 6 201 -1 221 -7z"/>
</g>
</svg>
