<?xml version="1.0" encoding="UTF-8" standalone="no"?>
<!-- Created with Inkscape (http://www.inkscape.org/) -->

<svg
   xmlns:dc="http://purl.org/dc/elements/1.1/"
   xmlns:cc="http://creativecommons.org/ns#"
   xmlns:rdf="http://www.w3.org/1999/02/22-rdf-syntax-ns#"
   xmlns:svg="http://www.w3.org/2000/svg"
   xmlns="http://www.w3.org/2000/svg"
   xmlns:sodipodi="http://sodipodi.sourceforge.net/DTD/sodipodi-0.dtd"
   xmlns:inkscape="http://www.inkscape.org/namespaces/inkscape"
   id="svg3390"
   version="1.1"
   inkscape:version="0.91 r13725"
   xml:space="preserve"
   width="921.25"
   height="425"
   viewBox="0 0 921.25 425"
   sodipodi:docname="space.svg"><metadata
     id="metadata3396"><rdf:RDF><cc:Work
         rdf:about=""><dc:format>image/svg+xml</dc:format><dc:type
           rdf:resource="http://purl.org/dc/dcmitype/StillImage" /><dc:title></dc:title></cc:Work></rdf:RDF></metadata><defs
     id="defs3394"><clipPath
       clipPathUnits="userSpaceOnUse"
       id="clipPath3404"><path
         d="m 0,-0.1 737,0 0,340.10001 -737,0 L 0,-0.1 Z"
         id="path3406"
         inkscape:connector-curvature="0"
         style="clip-rule:evenodd" /></clipPath><clipPath
       clipPathUnits="userSpaceOnUse"
       id="clipPath3642"><path
         d="m 368,5 0,0 0,331.1 0,0 L 368,5 Z"
         id="path3644"
         inkscape:connector-curvature="0" /></clipPath></defs><sodipodi:namedview
     pagecolor="#ffffff"
     bordercolor="#666666"
     borderopacity="1"
     objecttolerance="10"
     gridtolerance="10"
     guidetolerance="10"
     inkscape:pageopacity="0"
     inkscape:pageshadow="2"
     inkscape:window-width="640"
     inkscape:window-height="480"
     id="namedview3392"
     showgrid="false"
     inkscape:zoom="2.5899593"
     inkscape:cx="460.625"
     inkscape:cy="212.5"
     inkscape:window-x="0"
     inkscape:window-y="0"
     inkscape:window-maximized="0"
     inkscape:current-layer="g3398" /><g
     id="g3398"
     inkscape:groupmode="layer"
     inkscape:label="spaceLastX3"
     transform="matrix(1.25,0,0,-1.25,0,425)"><g
       id="g3400"><g
         id="g3402"
         clip-path="url(#clipPath3404)"><g
           id="g3408"
           transform="translate(0,340)"><path
             d="m 0,0 737,0 0,-340.10001 -737,0 L 0,0 Z"
             style="fill:#ffffff;fill-opacity:1;fill-rule:evenodd;stroke:none"
             id="path3410"
             inkscape:connector-curvature="0" /></g><g
           id="g3412"
           transform="translate(50.700001,32.799999)"><path
             d="M 0,0 623.70001,0"
             style="fill:none;stroke:#231f20;stroke-width:0.80000001;stroke-linecap:butt;stroke-linejoin:round;stroke-miterlimit:10;stroke-dasharray:none;stroke-opacity:1"
             id="path3414"
             inkscape:connector-curvature="0" /></g><g
           id="g3416"
           transform="translate(50.700001,32.799999)"><path
             d="M 0,0 0,283.5"
             style="fill:none;stroke:#231f20;stroke-width:0.80000001;stroke-linecap:butt;stroke-linejoin:round;stroke-miterlimit:10;stroke-dasharray:none;stroke-opacity:1"
             id="path3418"
             inkscape:connector-curvature="0" /></g><g
           id="g3420"
           transform="translate(50.900002,33)"><path
             d="M 0,0 466.29999,269.20001"
             style="fill:none;stroke:#231f20;stroke-width:0.80000001;stroke-linecap:butt;stroke-linejoin:round;stroke-miterlimit:10;stroke-dasharray:none;stroke-opacity:1"
             id="path3422"
             inkscape:connector-curvature="0" /></g><text
           transform="matrix(0,1,1,0,43.799999,247.10001)"
           style="font-variant:normal;font-weight:bold;font-size:18px;font-family:LMRoman10;-inkscape-font-specification:LMRoman10-Bold;writing-mode:lr-tb;fill:#231f20;fill-opacity:1;fill-rule:nonzero;stroke:none"
           id="text3424"><tspan
             x="0 11.500002 22.5 30.6 38.700001 48.200005"
             y="0"
             sodipodi:role="line"
             id="tspan3426">System</tspan></text>
<text
           transform="matrix(0.866,0.5,0.5,-0.866,429.79999,256.10001)"
           style="font-variant:normal;font-weight:bold;font-size:17.99960327px;font-family:LMRoman10;-inkscape-font-specification:LMRoman10-Bold;writing-mode:lr-tb;fill:#231f20;fill-opacity:1;fill-rule:nonzero;stroke:none"
           id="text3428"><tspan
             x="0"
             y="0"
             id="tspan3430">M</tspan><tspan
             x="19.622566"
             y="0.012999714"
             id="tspan3432">e</tspan><tspan
             x="29.124357"
             y="-0.043999031"
             id="tspan3434">t</tspan><tspan
             x="37.18618"
             y="-0.0079998244"
             id="tspan3436">h</tspan><tspan
             x="48.609928"
             y="0.0059998678"
             id="tspan3438">o</tspan><tspan
             x="59.0037"
             y="0.0029999339"
             id="tspan3440">d</tspan></text>
<text
           transform="matrix(1,0,0,-1,593.29999,14.3)"
           style="font-variant:normal;font-weight:bold;font-size:18px;font-family:LMRoman10;-inkscape-font-specification:LMRoman10-Bold;writing-mode:lr-tb;fill:#231f20;fill-opacity:1;fill-rule:nonzero;stroke:none"
           id="text3442"><tspan
             x="0"
             y="0"
             id="tspan3444">P</tspan></text>
<text
           transform="matrix(1,0,0,-1,607.48401,14.3)"
           style="font-variant:normal;font-weight:bold;font-size:18px;font-family:LMRoman10;-inkscape-font-specification:LMRoman10-Bold;writing-mode:lr-tb;fill:#231f20;fill-opacity:1;fill-rule:nonzero;stroke:none"
           id="text3446"><tspan
             x="0 8.4960003 18.792 30.275999 36.054001 45.450001"
             y="0"
             sodipodi:role="line"
             id="tspan3448">roblem</tspan></text>
<g
           id="g3450"
           transform="translate(283.10001,160.89999)"><path
             d="M 0,0 -4.9000001,8.3999996"
             style="fill:none;stroke:#231f20;stroke-width:2.82999992;stroke-linecap:butt;stroke-linejoin:round;stroke-miterlimit:10;stroke-dasharray:none;stroke-opacity:1"
             id="path3452"
             inkscape:connector-curvature="0" /></g><g
           id="g3454"
           transform="translate(198.3,112.1)"><path
             d="M 0,0 -4.9000001,8.5"
             style="fill:none;stroke:#231f20;stroke-width:2.82999992;stroke-linecap:butt;stroke-linejoin:round;stroke-miterlimit:10;stroke-dasharray:none;stroke-opacity:1"
             id="path3456"
             inkscape:connector-curvature="0" /></g><g
           id="g3458"
           transform="translate(113.5,63.299999)"><path
             d="M 0,0 -4.8000002,8.5"
             style="fill:none;stroke:#231f20;stroke-width:2.82999992;stroke-linecap:butt;stroke-linejoin:round;stroke-miterlimit:10;stroke-dasharray:none;stroke-opacity:1"
             id="path3460"
             inkscape:connector-curvature="0" /></g><g
           id="g3462"
           transform="translate(46.200001,105.3)"><path
             d="M 0,0 9.8000002,0"
             style="fill:none;stroke:#231f20;stroke-width:2.82999992;stroke-linecap:butt;stroke-linejoin:round;stroke-miterlimit:10;stroke-dasharray:none;stroke-opacity:1"
             id="path3464"
             inkscape:connector-curvature="0" /></g><g
           id="g3466"
           transform="translate(423.89999,67.400002)"><path
             d="M 0,0 -313.20001,0"
             style="fill:none;stroke:#231f20;stroke-width:0.80000001;stroke-linecap:butt;stroke-linejoin:round;stroke-miterlimit:10;stroke-dasharray:8.48999977, 4.24499988;stroke-dashoffset:0;stroke-opacity:1"
             id="path3468"
             inkscape:connector-curvature="0" /></g><g
           id="g3470"
           transform="translate(508.79999,116.1)"><path
             d="M 0,0 -313.20001,0"
             style="fill:none;stroke:#231f20;stroke-width:0.80000001;stroke-linecap:butt;stroke-linejoin:round;stroke-miterlimit:10;stroke-dasharray:8.48999977, 4.24499988;stroke-dashoffset:0;stroke-opacity:1"
             id="path3472"
             inkscape:connector-curvature="0" /></g><g
           id="g3474"
           transform="translate(593.5,164.89999)"><path
             d="M 0,0 -313.20001,0"
             style="fill:none;stroke:#231f20;stroke-width:0.80000001;stroke-linecap:butt;stroke-linejoin:round;stroke-miterlimit:10;stroke-dasharray:8.48999977, 4.24499988;stroke-dashoffset:0;stroke-opacity:1"
             id="path3476"
             inkscape:connector-curvature="0" /></g><g
           id="g3478"
           transform="translate(364,105.1)"><path
             d="M 0,0 -313.20001,0"
             style="fill:none;stroke:#231f20;stroke-width:0.80000001;stroke-linecap:butt;stroke-linejoin:round;stroke-miterlimit:10;stroke-dasharray:8.48999977, 4.24499988;stroke-dashoffset:0;stroke-opacity:1"
             id="path3480"
             inkscape:connector-curvature="0" /></g><g
           id="g3482"
           transform="translate(364,32.299999)"><path
             d="M 0,0 60.099998,34.700001"
             style="fill:none;stroke:#231f20;stroke-width:0.80000001;stroke-linecap:butt;stroke-linejoin:round;stroke-miterlimit:10;stroke-dasharray:8.48999977, 4.24499988;stroke-dashoffset:0;stroke-opacity:1"
             id="path3484"
             inkscape:connector-curvature="0" /></g><g
           id="g3486"
           transform="translate(424.29999,67)"><path
             d="M 0,0 84.699997,48.799999"
             style="fill:none;stroke:#231f20;stroke-width:0.80000001;stroke-linecap:butt;stroke-linejoin:round;stroke-miterlimit:10;stroke-dasharray:8.48999977, 4.24499988;stroke-dashoffset:0;stroke-opacity:1"
             id="path3488"
             inkscape:connector-curvature="0" /></g><g
           id="g3490"
           transform="translate(509,115.8)"><path
             d="M 0,0 84.800003,48.700001"
             style="fill:none;stroke:#231f20;stroke-width:0.80000001;stroke-linecap:butt;stroke-linejoin:round;stroke-miterlimit:10;stroke-dasharray:8.48999977, 4.24499988;stroke-dashoffset:0;stroke-opacity:1"
             id="path3492"
             inkscape:connector-curvature="0" /></g><g
           id="g3494"
           transform="translate(593.59998,245.60001)"><path
             d="M 0,0 C 4.4000001,0 7.8000002,-3.4000001 7.8000002,-7.8000002 7.8000002,-12.2 4.4000001,-15.6 0,-15.6 c -4.4000001,0 -7.8000002,3.4 -7.8000002,7.7999998 C -7.8000002,-3.4000001 -4.4000001,0 0,0 Z m -7.8000002,0 0,0 z m 15.6000004,-15.7 0,0 z"
             style="fill:#231f20;fill-opacity:1;fill-rule:evenodd;stroke:none"
             id="path3496"
             inkscape:connector-curvature="0" /></g><g
           id="g3498"
           transform="translate(593.59998,245.60001)"><path
             d="M 0,0 C 4.4000001,0 7.8000002,-3.4000001 7.8000002,-7.8000002 7.8000002,-12.2 4.4000001,-15.6 0,-15.6 c -4.4000001,0 -7.8000002,3.4 -7.8000002,7.7999998 C -7.8000002,-3.4000001 -4.4000001,0 0,0 Z"
             style="fill:none;stroke:#231f20;stroke-width:0.80000001;stroke-linecap:butt;stroke-linejoin:round;stroke-miterlimit:10;stroke-dasharray:none;stroke-opacity:1"
             id="path3500"
             inkscape:connector-curvature="0" /></g><g
           id="g3502"
           transform="translate(585.79999,245.60001)"><path
             d="M 0,0 0,0 Z"
             style="fill:none;stroke:#231f20;stroke-width:0.80000001;stroke-linecap:butt;stroke-linejoin:round;stroke-miterlimit:10;stroke-dasharray:none;stroke-opacity:1"
             id="path3504"
             inkscape:connector-curvature="0" /></g><g
           id="g3506"
           transform="translate(601.40002,229.89999)"><path
             d="M 0,0 0,0 Z"
             style="fill:none;stroke:#231f20;stroke-width:0.80000001;stroke-linecap:butt;stroke-linejoin:round;stroke-miterlimit:10;stroke-dasharray:none;stroke-opacity:1"
             id="path3508"
             inkscape:connector-curvature="0" /></g><g
           id="g3510"
           transform="translate(508.60001,196.7)"><path
             d="M 0,0 C 4.5,0 7.9000001,-3.4000001 7.9000001,-7.8000002 7.9000001,-12.3 4.5,-15.7 0,-15.7 c -4.4000001,0 -7.8000002,3.4 -7.8000002,7.8999998 C -7.8000002,-3.4000001 -4.4000001,0 0,0 Z m -7.8000002,0 0,0 z m 15.7000003,-15.7 0,0 z"
             style="fill:#231f20;fill-opacity:1;fill-rule:evenodd;stroke:none"
             id="path3512"
             inkscape:connector-curvature="0" /></g><g
           id="g3514"
           transform="translate(508.60001,196.7)"><path
             d="M 0,0 C 4.5,0 7.9000001,-3.4000001 7.9000001,-7.8000002 7.9000001,-12.3 4.5,-15.7 0,-15.7 c -4.4000001,0 -7.8000002,3.4 -7.8000002,7.8999998 C -7.8000002,-3.4000001 -4.4000001,0 0,0 Z"
             style="fill:none;stroke:#231f20;stroke-width:0.80000001;stroke-linecap:butt;stroke-linejoin:round;stroke-miterlimit:10;stroke-dasharray:none;stroke-opacity:1"
             id="path3516"
             inkscape:connector-curvature="0" /></g><g
           id="g3518"
           transform="translate(500.79999,196.7)"><path
             d="M 0,0 0,0 Z"
             style="fill:none;stroke:#231f20;stroke-width:0.80000001;stroke-linecap:butt;stroke-linejoin:round;stroke-miterlimit:10;stroke-dasharray:none;stroke-opacity:1"
             id="path3520"
             inkscape:connector-curvature="0" /></g><g
           id="g3522"
           transform="translate(516.5,181)"><path
             d="M 0,0 0,0 Z"
             style="fill:none;stroke:#231f20;stroke-width:0.80000001;stroke-linecap:butt;stroke-linejoin:round;stroke-miterlimit:10;stroke-dasharray:none;stroke-opacity:1"
             id="path3524"
             inkscape:connector-curvature="0" /></g><g
           id="g3526"
           transform="translate(423.70001,147.7)"><path
             d="M 0,0 C 4.4000001,0 7.8000002,-3.4000001 7.8000002,-7.8000002 7.8000002,-12.2 4.4000001,-15.6 0,-15.6 c -4.4000001,0 -7.8000002,3.4 -7.8000002,7.7999998 C -7.8000002,-3.4000001 -4.4000001,0 0,0 Z m -7.8000002,0 0,0 z m 15.6000004,-15.7 0,0 z"
             style="fill:#231f20;fill-opacity:1;fill-rule:evenodd;stroke:none"
             id="path3528"
             inkscape:connector-curvature="0" /></g><g
           id="g3530"
           transform="translate(423.70001,147.7)"><path
             d="M 0,0 C 4.4000001,0 7.8000002,-3.4000001 7.8000002,-7.8000002 7.8000002,-12.2 4.4000001,-15.6 0,-15.6 c -4.4000001,0 -7.8000002,3.4 -7.8000002,7.7999998 C -7.8000002,-3.4000001 -4.4000001,0 0,0 Z"
             style="fill:none;stroke:#231f20;stroke-width:0.80000001;stroke-linecap:butt;stroke-linejoin:round;stroke-miterlimit:10;stroke-dasharray:none;stroke-opacity:1"
             id="path3532"
             inkscape:connector-curvature="0" /></g><g
           id="g3534"
           transform="translate(415.89999,147.7)"><path
             d="M 0,0 0,0 Z"
             style="fill:none;stroke:#231f20;stroke-width:0.80000001;stroke-linecap:butt;stroke-linejoin:round;stroke-miterlimit:10;stroke-dasharray:none;stroke-opacity:1"
             id="path3536"
             inkscape:connector-curvature="0" /></g><g
           id="g3538"
           transform="translate(431.5,132)"><path
             d="M 0,0 0,0 Z"
             style="fill:none;stroke:#231f20;stroke-width:0.80000001;stroke-linecap:butt;stroke-linejoin:round;stroke-miterlimit:10;stroke-dasharray:none;stroke-opacity:1"
             id="path3540"
             inkscape:connector-curvature="0" /></g><g
           id="g3542"
           transform="translate(423.79999,67.599998)"><path
             d="M 0,0 0,72"
             style="fill:none;stroke:#231f20;stroke-width:0.80000001;stroke-linecap:butt;stroke-linejoin:round;stroke-miterlimit:10;stroke-dasharray:8.48999977, 4.24499988;stroke-dashoffset:0;stroke-opacity:1"
             id="path3544"
             inkscape:connector-curvature="0" /></g><g
           id="g3546"
           transform="translate(508.70001,116.4)"><path
             d="M 0,0 0,72"
             style="fill:none;stroke:#231f20;stroke-width:0.80000001;stroke-linecap:butt;stroke-linejoin:round;stroke-miterlimit:10;stroke-dasharray:8.48999977, 4.24499988;stroke-dashoffset:0;stroke-opacity:1"
             id="path3548"
             inkscape:connector-curvature="0" /></g><g
           id="g3550"
           transform="translate(593.5,165.10001)"><path
             d="M 0,0 0,72"
             style="fill:none;stroke:#231f20;stroke-width:0.80000001;stroke-linecap:butt;stroke-linejoin:round;stroke-miterlimit:10;stroke-dasharray:8.48999977, 4.24499988;stroke-dashoffset:0;stroke-opacity:1"
             id="path3552"
             inkscape:connector-curvature="0" /></g><g
           id="g3554"
           transform="translate(509.10001,188.7)"><path
             d="M 0,0 84.599998,48.900002"
             style="fill:none;stroke:#231f20;stroke-width:0.80000001;stroke-linecap:butt;stroke-linejoin:round;stroke-miterlimit:10;stroke-dasharray:8.63099956, 4.30200004;stroke-dashoffset:0;stroke-opacity:1"
             id="path3556"
             inkscape:connector-curvature="0" /></g><g
           id="g3558"
           transform="translate(424.10001,139.8)"><path
             d="M 0,0 84.599998,48.799999"
             style="fill:none;stroke:#231f20;stroke-width:0.80000001;stroke-linecap:butt;stroke-linejoin:round;stroke-miterlimit:10;stroke-dasharray:8.63099956, 4.30200004;stroke-dashoffset:0;stroke-opacity:1"
             id="path3560"
             inkscape:connector-curvature="0" /></g><g
           id="g3562"
           transform="translate(364,105.1)"><path
             d="M 0,0 60.099998,34.700001"
             style="fill:none;stroke:#231f20;stroke-width:0.80000001;stroke-linecap:butt;stroke-linejoin:round;stroke-miterlimit:10;stroke-dasharray:8.48999977, 4.24499988;stroke-dashoffset:0;stroke-opacity:1"
             id="path3564"
             inkscape:connector-curvature="0" /></g><text
           transform="matrix(1,0,0,-1,348.89999,15.2)"
           style="font-variant:normal;font-weight:normal;font-size:14px;font-family:Cmr10;-inkscape-font-specification:Cmr10;writing-mode:lr-tb;fill:#231f20;fill-opacity:1;fill-rule:nonzero;stroke:none"
           id="text3566"><tspan
             x="0 9.5900002 15.078 22.162001"
             y="0"
             sodipodi:role="line"
             id="tspan3568">Pro1</tspan></text>
<g
           id="g3570"
           transform="translate(364,33.099998)"><path
             d="M 0,0 0,72"
             style="fill:none;stroke:#231f20;stroke-width:0.80000001;stroke-linecap:butt;stroke-linejoin:round;stroke-miterlimit:10;stroke-dasharray:8.48999977, 4.24499988;stroke-dashoffset:0;stroke-opacity:1"
             id="path3572"
             inkscape:connector-curvature="0" /></g><g
           id="g3574"
           transform="translate(364,27.4)"><path
             d="M 0,0 0,9.8000002"
             style="fill:none;stroke:#231f20;stroke-width:2.82999992;stroke-linecap:butt;stroke-linejoin:round;stroke-miterlimit:10;stroke-dasharray:none;stroke-opacity:1"
             id="path3576"
             inkscape:connector-curvature="0" /></g><text
           transform="matrix(0.866,0.5,0.5,-0.866,92.599998,70.400002)"
           style="font-variant:normal;font-weight:normal;font-size:13.99969196px;font-family:Cmr10;-inkscape-font-specification:Cmr10;writing-mode:lr-tb;fill:#231f20;fill-opacity:1;fill-rule:nonzero;stroke:none"
           id="text3578"><tspan
             x="0"
             y="0"
             id="tspan3580">M</tspan><tspan
             x="12.72572"
             y="-0.042999055"
             id="tspan3582">e</tspan><tspan
             x="19.038582"
             y="0.021999516"
             id="tspan3584">t</tspan><tspan
             x="24.458462"
             y="0.033999253"
             id="tspan3586">1</tspan><tspan
             x="100.2558"
             y="0.14799674"
             id="tspan3588">M</tspan><tspan
             x="113.06852"
             y="0.15499659"
             id="tspan3590">e</tspan><tspan
             x="119.29538"
             y="0.16999626"
             id="tspan3592">t</tspan><tspan
             x="124.71526"
             y="0.181996"
             id="tspan3594">2</tspan></text>
<text
           transform="matrix(0.86690002,0.49849998,0.49849998,-0.86690002,266.5,170.39999)"
           style="font-variant:normal;font-weight:normal;font-size:14.00012493px;font-family:Cmr10;-inkscape-font-specification:Cmr10;writing-mode:lr-tb;fill:#231f20;fill-opacity:1;fill-rule:nonzero;stroke:none"
           id="text3596"><tspan
             x="0"
             y="0"
             id="tspan3598">M</tspan><tspan
             x="12.676113"
             y="0.022000197"
             id="tspan3600">e</tspan><tspan
             x="18.90317"
             y="0.026000232"
             id="tspan3602">t</tspan><tspan
             x="24.323217"
             y="0.02800025"
             id="tspan3604">3</tspan></text>
<g
           id="g3606"
           transform="translate(634.5,186.5)"><path
             d="m 0,0 -73.199997,0 0,23.1 146.299995,0 0,-23.1 L 0,0 Z"
             style="fill:#ffffff;fill-opacity:1;fill-rule:evenodd;stroke:none"
             id="path3608"
             inkscape:connector-curvature="0" /></g><text
           transform="matrix(1,0,0,-1,568.29999,194.8)"
           style="font-variant:normal;font-weight:normal;font-size:16px;font-family:Cmr10;-inkscape-font-specification:Cmr10;writing-mode:lr-tb;fill:#ee252b;fill-opacity:1;fill-rule:nonzero;stroke:none"
           id="text3610"><tspan
             x="0 13.392 21.392 28.48 34.672001 42.751999 47.952 55.040001 63.439999 72.32 79.407997 85.599998 90.080002 103.376 110.464 119.264"
             y="0"
             sodipodi:role="line"
             id="tspan3612">macro-experiment</tspan></text>
<text
           transform="matrix(1,0,0,-1,13.200012,101.9)"
           style="font-variant:normal;font-weight:normal;font-size:14px;font-family:Cmr10;-inkscape-font-specification:Cmr10;writing-mode:lr-tb;fill:#231f20;fill-opacity:1;fill-rule:nonzero;stroke:none"
           id="text3614"><tspan
             x="0 7.7839999 15.176 20.677999"
             y="0"
             sodipodi:role="line"
             id="tspan3616">Sys1</tspan></text>
<g
           id="g3618"
           transform="translate(497.89999,202.60001)"><path
             d="M 0,0 C 59.5,34.400002 108.6,54.400002 113.3,46.200001 118.1,37.900002 76.199997,5.4000001 16.700001,-29 -42.799999,-63.299999 -91.900002,-83.300003 -96.699997,-75.099998 -101.4,-66.900002 -59.599998,-34.400002 0,0 Z"
             style="fill:none;stroke:#ee252b;stroke-width:1.44299996;stroke-linecap:butt;stroke-linejoin:round;stroke-miterlimit:10;stroke-dasharray:none;stroke-opacity:1"
             id="path3620"
             inkscape:connector-curvature="0" /></g><g
           id="g3622"
           transform="translate(392.89999,142)"><path
             d="M 0,0 0,0 Z"
             style="fill:none;stroke:#ee252b;stroke-width:1.44299996;stroke-linecap:butt;stroke-linejoin:round;stroke-miterlimit:10;stroke-dasharray:none;stroke-opacity:1"
             id="path3624"
             inkscape:connector-curvature="0" /></g><g
           id="g3626"
           transform="translate(619.59998,234.2)"><path
             d="M 0,0 0,0 Z"
             style="fill:none;stroke:#ee252b;stroke-width:1.44299996;stroke-linecap:butt;stroke-linejoin:round;stroke-miterlimit:10;stroke-dasharray:none;stroke-opacity:1"
             id="path3628"
             inkscape:connector-curvature="0" /></g><text
           transform="matrix(1,0,0,-1,264.60001,145.60001)"
           style="font-variant:normal;font-weight:normal;font-size:16px;font-family:Cmr10;-inkscape-font-specification:Cmr10;writing-mode:lr-tb;fill:#231f20;fill-opacity:1;fill-rule:nonzero;stroke:none"
           id="text3630"><tspan
             x="0 13.296 17.775999 24.768 31.056 39.056 44.352001 51.439999 59.84 68.720001 75.711998 82 86.400002 99.695999 106.784 115.664 121.856 127.152"
             y="0"
             sodipodi:role="line"
             id="tspan3632">micro-experiment 1</tspan><tspan
             x="84.699997 98.091995 102.492 109.57999 115.772 123.852 129.052 136.14 144.53999 153.42 160.508 166.7 171.17999 184.476 191.564 200.364 206.65199 211.948"
             y="-48.799999"
             sodipodi:role="line"
             id="tspan3634">micro-experiment 2</tspan><tspan
             x="169.5 182.79601 187.276 194.26801 200.556 208.556 213.85201 220.94 229.34 238.22 245.21201 251.5 255.89999 269.19601 276.284 285.164 291.35599 296.65201"
             y="-97.5"
             sodipodi:role="line"
             id="tspan3636">micro-experiment 3</tspan></text>
</g></g><g
       id="g3638"><g
         id="g3640" /><g
         id="g3646"><g
           clip-path="url(#clipPath3642)"
           id="g3648"
           style="opacity:0.5" /></g></g></g></svg>